<svg width="92" height="66" viewBox="0 0 92 66" fill="none" xmlns="http://www.w3.org/2000/svg">
<path d="M67.4134 12.0558C66.4414 11.8908 65.5276 12.2476 65.1633 12.9458L57.2546 28.0565L40.8929 19.567C40.285 19.2526 39.5396 19.1128 38.9202 19.2815C38.9194 19.2817 38.9185 19.2819 38.9177 19.2821C38.2972 19.4511 37.8727 19.9117 37.7154 20.4364L33.498 34.6278L13.4785 27.1132C12.5539 26.7664 11.5354 26.9286 10.9657 27.5133C10.3955 28.0981 10.4064 28.9698 10.9921 29.664L35.3873 58.562C36.0174 59.3084 37.1469 59.6561 38.0987 59.3969L77.0268 48.7951C77.9791 48.5357 78.495 47.7376 78.2664 46.8815L69.406 13.6745C69.1936 12.8787 68.3852 12.2204 67.4134 12.0558Z" fill="black"/>
<path d="M33.054 15.4142C34.0495 17.2709 36.6162 18.3037 38.7754 17.7165C40.9347 17.1292 41.8815 15.1409 40.886 13.2842C39.8905 11.4276 37.3238 10.3948 35.1645 10.982C33.0053 11.5692 32.0585 13.5576 33.054 15.4142Z" fill="black"/>
<path d="M11.1279 23.8497C10.1324 21.9931 7.5657 20.9603 5.40646 21.5475C3.24722 22.1347 2.30054 24.1228 3.29617 25.9797C4.29179 27.8365 6.85837 28.8691 9.01762 28.2819C11.1769 27.6947 12.1234 25.7064 11.1279 23.8497Z" fill="black"/>
<path d="M66.4204 3.46637C64.2612 4.0536 63.3143 6.04195 64.3098 7.89861C65.3053 9.75527 67.8721 10.7881 70.0313 10.2008C72.1905 9.61361 73.1374 7.62526 72.1419 5.7686C71.1464 3.91194 68.5797 2.87914 66.4204 3.46637Z" fill="black"/>
</svg>
