<svg width="517" height="203" viewBox="0 0 517 203" fill="none" xmlns="http://www.w3.org/2000/svg">
<path d="M101.928 20.8L149.928 70.08L150.728 79.12L102.728 29.92L101.928 20.8ZM102.168 72.32V78H95.5281V77.2C95.5281 77.2 95.7681 77.2 96.2481 77.2C96.7281 77.2 96.9948 77.2 97.0481 77.2C98.3815 77.2 99.5281 76.72 100.488 75.76C101.448 74.8 101.928 73.6533 101.928 72.32H102.168ZM108.168 72.32C108.168 73.6533 108.648 74.8 109.608 75.76C110.568 76.72 111.715 77.2 113.048 77.2C113.101 77.2 113.368 77.2 113.848 77.2C114.328 77.2 114.568 77.2 114.568 77.2V78H107.928V72.32H108.168ZM101.928 20.8L108.088 27.84L108.168 78H101.928V30.8C101.928 27.9733 101.795 25.6 101.528 23.68C101.261 21.76 101.128 20.8 101.128 20.8H101.928ZM150.648 22V68.88C150.648 70.6933 150.701 72.4 150.808 74C150.968 75.5467 151.101 76.8 151.208 77.76C151.368 78.6667 151.448 79.12 151.448 79.12H150.728L144.488 72V22H150.648ZM157.048 22V22.8C157.048 22.8 156.808 22.8 156.328 22.8C155.848 22.8 155.608 22.8 155.608 22.8C154.275 22.8 153.128 23.28 152.168 24.24C151.208 25.1467 150.701 26.2933 150.648 27.68H150.408V22H157.048ZM138.008 22H144.648V27.68H144.488C144.435 26.2933 143.928 25.1467 142.968 24.24C142.061 23.28 140.915 22.8 139.528 22.8C139.528 22.8 139.288 22.8 138.808 22.8C138.328 22.8 138.061 22.8 138.008 22.8V22ZM189.369 28.56L211.929 77.52H203.209L186.889 38.16L189.369 28.56ZM174.089 72.32C173.502 73.8667 173.582 75.0667 174.329 75.92C175.075 76.7733 175.929 77.2 176.889 77.2H177.529V78H162.009V77.2C162.009 77.2 162.115 77.2 162.329 77.2C162.542 77.2 162.649 77.2 162.649 77.2C163.715 77.2 164.835 76.8267 166.009 76.08C167.182 75.3333 168.195 74.08 169.049 72.32H174.089ZM189.369 28.56L189.849 35.44L171.849 77.76H166.489L185.369 37.28C185.422 37.1733 185.609 36.7733 185.929 36.08C186.249 35.3333 186.595 34.48 186.969 33.52C187.395 32.56 187.769 31.6267 188.089 30.72C188.462 29.8133 188.675 29.0933 188.729 28.56H189.369ZM198.009 60.32V62.96H177.049V60.32H198.009ZM201.129 72.32H209.609C210.409 74.08 211.395 75.3333 212.569 76.08C213.742 76.8267 214.862 77.2 215.929 77.2C215.929 77.2 216.035 77.2 216.249 77.2C216.462 77.2 216.569 77.2 216.569 77.2V78H197.769V77.2H198.409C199.315 77.2 200.142 76.7733 200.889 75.92C201.635 75.0667 201.715 73.8667 201.129 72.32ZM250.187 30C255.627 30 260.294 30.96 264.187 32.88C268.134 34.8 271.147 37.5733 273.227 41.2C275.36 44.7733 276.427 49.04 276.427 54C276.427 58.96 275.36 63.2267 273.227 66.8C271.147 70.3733 268.134 73.1467 264.187 75.12C260.294 77.04 255.627 78 250.187 78H232.907L232.747 75.36C236.587 75.36 239.76 75.36 242.267 75.36C244.774 75.36 246.667 75.36 247.947 75.36C249.227 75.36 249.867 75.36 249.867 75.36C255.68 75.36 260.24 73.4667 263.547 69.68C266.907 65.84 268.587 60.6133 268.587 54C268.587 47.3867 266.907 42.1867 263.547 38.4C260.24 34.56 255.68 32.64 249.867 32.64C249.867 32.64 249.2 32.64 247.867 32.64C246.587 32.64 244.614 32.64 241.947 32.64C239.28 32.64 235.947 32.64 231.947 32.64V30H250.187ZM236.267 30V78H228.907V30H236.267ZM229.147 72.8V78H223.387V77.2C223.387 77.2 223.547 77.2 223.867 77.2C224.187 77.2 224.374 77.2 224.427 77.2C225.654 77.2 226.694 76.7733 227.547 75.92C228.454 75.0133 228.907 73.9733 228.907 72.8H229.147ZM229.067 35.12H228.907C228.854 33.8933 228.374 32.88 227.467 32.08C226.614 31.2267 225.574 30.8 224.347 30.8C224.347 30.8 224.187 30.8 223.867 30.8C223.547 30.8 223.387 30.8 223.387 30.8V30H229.067V35.12ZM300.202 30V78H293.002V30H300.202ZM293.242 72.88V78H286.762V77.2C286.762 77.2 286.922 77.2 287.242 77.2C287.615 77.2 287.829 77.2 287.882 77.2C289.269 77.2 290.442 76.7733 291.402 75.92C292.415 75.0667 292.949 74.0533 293.002 72.88H293.242ZM299.962 72.88H300.202C300.255 74.0533 300.762 75.0667 301.722 75.92C302.735 76.7733 303.962 77.2 305.402 77.2C305.402 77.2 305.562 77.2 305.882 77.2C306.202 77.2 306.362 77.2 306.362 77.2L306.442 78H299.962V72.88ZM299.962 35.12V30H306.442L306.362 30.8C306.362 30.8 306.202 30.8 305.882 30.8C305.562 30.8 305.402 30.8 305.402 30.8C303.962 30.8 302.735 31.2267 301.722 32.08C300.762 32.88 300.255 33.8933 300.202 35.12H299.962ZM293.242 35.12H293.002C292.949 33.8933 292.415 32.88 291.402 32.08C290.442 31.2267 289.242 30.8 287.802 30.8C287.802 30.8 287.615 30.8 287.242 30.8C286.922 30.8 286.762 30.8 286.762 30.8V30H293.242V35.12ZM322.348 28.8L367.548 70.4L368.348 79.12L323.228 37.36L322.348 28.8ZM322.588 73.04V78H316.588V77.2C316.588 77.2 316.801 77.2 317.228 77.2C317.708 77.2 317.948 77.2 317.948 77.2C319.174 77.2 320.214 76.8 321.068 76C321.921 75.2 322.348 74.2133 322.348 73.04H322.588ZM328.428 73.04C328.428 74.2133 328.854 75.2 329.708 76C330.614 76.8 331.654 77.2 332.828 77.2C332.828 77.2 333.041 77.2 333.468 77.2C333.894 77.2 334.108 77.2 334.108 77.2V78H328.188V73.04H328.428ZM322.348 28.8L328.348 35.84L328.428 78H322.348V38.56C322.348 35.84 322.214 33.5467 321.948 31.68C321.734 29.76 321.628 28.8 321.628 28.8H322.348ZM368.348 30V69.12C368.348 70.88 368.401 72.5333 368.508 74.08C368.614 75.5733 368.721 76.8 368.828 77.76C368.988 78.6667 369.068 79.12 369.068 79.12H368.348L362.348 72V30H368.348ZM368.108 34.96V30H374.108V30.8C374.108 30.8 373.868 30.8 373.388 30.8C372.961 30.8 372.748 30.8 372.748 30.8C371.574 30.8 370.534 31.2 369.628 32C368.774 32.8 368.348 33.7867 368.348 34.96H368.108ZM362.348 34.96C362.294 33.7867 361.841 32.8 360.988 32C360.134 31.2 359.094 30.8 357.868 30.8C357.868 30.8 357.628 30.8 357.148 30.8C356.721 30.8 356.508 30.8 356.508 30.8V30H362.508V34.96H362.348ZM397.251 30V78H389.971V30H397.251ZM417.811 75.28L418.371 78H397.091V75.28H417.811ZM414.451 52.72V55.44H397.091V52.72H414.451ZM418.051 30V32.72H397.091V30H418.051ZM422.531 65.44L418.611 78H405.891L408.531 75.28C411.038 75.28 413.118 74.88 414.771 74.08C416.478 73.2267 417.891 72.0533 419.011 70.56C420.131 69.0667 421.038 67.36 421.731 65.44H422.531ZM414.451 55.28V60.64H413.571V59.76C413.571 58.5333 413.198 57.52 412.451 56.72C411.758 55.8667 410.718 55.44 409.331 55.44V55.28H414.451ZM414.451 47.52V52.88H409.331V52.72C410.718 52.72 411.758 52.2933 412.451 51.44C413.198 50.5867 413.571 49.5733 413.571 48.4V47.52H414.451ZM418.051 32.48V39.04H417.251V38C417.251 36.4533 416.798 35.2 415.891 34.24C414.985 33.2267 413.731 32.72 412.131 32.72V32.48H418.051ZM418.051 28.72V30.8L409.171 30C410.825 30 412.558 29.8667 414.371 29.6C416.185 29.28 417.411 28.9867 418.051 28.72ZM390.211 72.88L391.011 78H384.371V77.2C384.371 77.2 384.531 77.2 384.851 77.2C385.225 77.2 385.438 77.2 385.491 77.2C386.771 77.2 387.838 76.7733 388.691 75.92C389.545 75.0667 389.971 74.0533 389.971 72.88H390.211ZM390.211 35.04H389.971C389.971 33.8133 389.545 32.8 388.691 32C387.838 31.2 386.771 30.8 385.491 30.8C385.438 30.8 385.225 30.8 384.851 30.8C384.531 30.8 384.371 30.8 384.371 30.8V30H391.011L390.211 35.04Z" fill="url(#paint0_diamond_2_47)"/>
<path d="M185.046 130.5H189.526C191.182 130.5 192.606 130.733 193.796 131.2C195.009 131.667 195.931 132.343 196.561 133.23C197.214 134.093 197.541 135.143 197.541 136.38C197.541 137.407 197.342 138.293 196.946 139.04C196.572 139.763 196.082 140.347 195.476 140.79C194.869 141.21 194.227 141.502 193.551 141.665C194.764 141.828 195.826 142.213 196.736 142.82C197.669 143.427 198.381 144.197 198.871 145.13C199.361 146.063 199.606 147.137 199.606 148.35C199.606 149.703 199.256 150.882 198.556 151.885C197.879 152.888 196.887 153.658 195.581 154.195C194.274 154.732 192.711 155 190.891 155H187.146C187.146 155 187.146 154.883 187.146 154.65C187.169 154.417 187.181 154.195 187.181 153.985C187.181 153.752 187.181 153.635 187.181 153.635H190.296C191.462 153.635 192.454 153.425 193.271 153.005C194.111 152.585 194.752 151.955 195.196 151.115C195.639 150.275 195.861 149.248 195.861 148.035C195.861 146.822 195.639 145.83 195.196 145.06C194.752 144.267 194.181 143.66 193.481 143.24C192.781 142.797 191.999 142.493 191.136 142.33C190.296 142.143 189.467 142.05 188.651 142.05V141.735C189.187 141.735 189.759 141.665 190.366 141.525C190.972 141.385 191.544 141.14 192.081 140.79C192.641 140.44 193.084 139.938 193.411 139.285C193.761 138.608 193.936 137.745 193.936 136.695C193.936 135.598 193.737 134.688 193.341 133.965C192.967 133.218 192.419 132.67 191.696 132.32C190.972 131.947 190.086 131.76 189.036 131.76H185.396C185.396 131.737 185.361 131.632 185.291 131.445C185.244 131.235 185.186 131.025 185.116 130.815C185.069 130.605 185.046 130.5 185.046 130.5ZM187.461 130.5V155H184.206V130.5H187.461ZM184.311 152.445V155H181.511L181.546 154.65C181.592 154.65 181.662 154.65 181.756 154.65C181.872 154.65 181.942 154.65 181.966 154.65C182.572 154.65 183.097 154.44 183.541 154.02C183.984 153.577 184.206 153.052 184.206 152.445H184.311ZM184.311 133.055H184.206C184.206 132.448 183.984 131.935 183.541 131.515C183.097 131.072 182.572 130.85 181.966 130.85C181.942 130.85 181.872 130.85 181.756 130.85C181.662 130.85 181.592 130.85 181.546 130.85L181.511 130.5H184.311V133.055ZM214.495 134V155H211.31V134H214.495ZM223.49 153.81L223.735 155H214.425V153.81H223.49ZM222.02 143.94V145.13H214.425V143.94H222.02ZM223.595 134V135.19H214.425V134H223.595ZM225.555 149.505L223.84 155H218.275L219.43 153.81C220.527 153.81 221.437 153.635 222.16 153.285C222.907 152.912 223.525 152.398 224.015 151.745C224.505 151.092 224.902 150.345 225.205 149.505H225.555ZM222.02 145.06V147.405H221.635V147.02C221.635 146.483 221.472 146.04 221.145 145.69C220.842 145.317 220.387 145.13 219.78 145.13V145.06H222.02ZM222.02 141.665V144.01H219.78V143.94C220.387 143.94 220.842 143.753 221.145 143.38C221.472 143.007 221.635 142.563 221.635 142.05V141.665H222.02ZM223.595 135.085V137.955H223.245V137.5C223.245 136.823 223.047 136.275 222.65 135.855C222.254 135.412 221.705 135.19 221.005 135.19V135.085H223.595ZM223.595 133.44V134.35L219.71 134C220.434 134 221.192 133.942 221.985 133.825C222.779 133.685 223.315 133.557 223.595 133.44ZM211.415 152.76L211.765 155H208.86V154.65C208.86 154.65 208.93 154.65 209.07 154.65C209.234 154.65 209.327 154.65 209.35 154.65C209.91 154.65 210.377 154.463 210.75 154.09C211.124 153.717 211.31 153.273 211.31 152.76H211.415ZM211.415 136.205H211.31C211.31 135.668 211.124 135.225 210.75 134.875C210.377 134.525 209.91 134.35 209.35 134.35C209.327 134.35 209.234 134.35 209.07 134.35C208.93 134.35 208.86 134.35 208.86 134.35V134H211.765L211.415 136.205ZM244.342 133.37L254.212 154.79H250.397L243.257 137.57L244.342 133.37ZM237.657 152.515C237.4 153.192 237.435 153.717 237.762 154.09C238.089 154.463 238.462 154.65 238.882 154.65H239.162V155H232.372V154.65C232.372 154.65 232.419 154.65 232.512 154.65C232.605 154.65 232.652 154.65 232.652 154.65C233.119 154.65 233.609 154.487 234.122 154.16C234.635 153.833 235.079 153.285 235.452 152.515H237.657ZM244.342 133.37L244.552 136.38L236.677 154.895H234.332L242.592 137.185C242.615 137.138 242.697 136.963 242.837 136.66C242.977 136.333 243.129 135.96 243.292 135.54C243.479 135.12 243.642 134.712 243.782 134.315C243.945 133.918 244.039 133.603 244.062 133.37H244.342ZM248.122 147.265V148.42H238.952V147.265H248.122ZM249.487 152.515H253.197C253.547 153.285 253.979 153.833 254.492 154.16C255.005 154.487 255.495 154.65 255.962 154.65C255.962 154.65 256.009 154.65 256.102 154.65C256.195 154.65 256.242 154.65 256.242 154.65V155H248.017V154.65H248.297C248.694 154.65 249.055 154.463 249.382 154.09C249.709 153.717 249.744 153.192 249.487 152.515ZM267.342 134V147.23C267.342 149.447 267.89 151.197 268.987 152.48C270.107 153.74 271.623 154.37 273.537 154.37C275.637 154.37 277.282 153.775 278.472 152.585C279.662 151.372 280.257 149.715 280.257 147.615V134H282.112V147.545C282.112 149.995 281.33 151.932 279.767 153.355C278.227 154.778 276.092 155.49 273.362 155.49C270.445 155.49 268.182 154.79 266.572 153.39C264.985 151.967 264.192 150.03 264.192 147.58V134H267.342ZM264.262 134V135.855H264.192C264.168 135.412 263.993 135.05 263.667 134.77C263.363 134.49 262.978 134.35 262.512 134.35C262.512 134.35 262.43 134.35 262.267 134.35C262.103 134.35 262.022 134.35 262.022 134.35V134H264.262ZM269.512 134V134.35C269.512 134.35 269.418 134.35 269.232 134.35C269.068 134.35 268.987 134.35 268.987 134.35C268.543 134.35 268.158 134.49 267.832 134.77C267.505 135.05 267.342 135.412 267.342 135.855H267.272V134H269.512ZM280.327 134V135.855H280.257C280.257 135.412 280.093 135.05 279.767 134.77C279.44 134.49 279.055 134.35 278.612 134.35C278.612 134.35 278.518 134.35 278.332 134.35C278.168 134.35 278.087 134.35 278.087 134.35V134H280.327ZM284.247 134V134.35C284.247 134.35 284.165 134.35 284.002 134.35C283.838 134.35 283.757 134.35 283.757 134.35C283.313 134.35 282.928 134.49 282.602 134.77C282.275 135.05 282.112 135.412 282.112 135.855H282.042V134H284.247ZM303.57 134.105V155H300.35V134.105H303.57ZM311.725 133.965V135.12H292.16V133.965H311.725ZM311.725 135.05V137.885H311.375V137.43C311.375 136.753 311.177 136.205 310.78 135.785C310.384 135.365 309.835 135.143 309.135 135.12V135.05H311.725ZM311.725 133.405V134.315L307.91 133.965C308.354 133.965 308.832 133.942 309.345 133.895C309.882 133.825 310.36 133.743 310.78 133.65C311.224 133.557 311.539 133.475 311.725 133.405ZM300.42 152.76V155H297.935V154.65C297.959 154.65 298.029 154.65 298.145 154.65C298.285 154.65 298.355 154.65 298.355 154.65C298.892 154.65 299.347 154.463 299.72 154.09C300.117 153.717 300.327 153.273 300.35 152.76H300.42ZM303.465 152.76H303.57C303.57 153.273 303.769 153.717 304.165 154.09C304.562 154.463 305.029 154.65 305.565 154.65C305.565 154.65 305.624 154.65 305.74 154.65C305.88 154.65 305.95 154.65 305.95 154.65V155H303.465V152.76ZM294.785 135.05V135.12C294.085 135.143 293.537 135.365 293.14 135.785C292.744 136.205 292.545 136.753 292.545 137.43V137.885H292.16V135.05H294.785ZM292.16 133.405C292.37 133.475 292.685 133.557 293.105 133.65C293.549 133.743 294.027 133.825 294.54 133.895C295.077 133.942 295.567 133.965 296.01 133.965L292.16 134.315V133.405ZM324.801 134.035L331.311 145.515L328.791 146.495L320.846 134.035H324.801ZM331.731 145.795V155H328.511V145.83L331.731 145.795ZM337.296 134.035H339.606L331.451 146.53L330.016 146.18L337.296 134.035ZM336.001 136.205C336.258 135.762 336.258 135.342 336.001 134.945C335.768 134.548 335.406 134.35 334.916 134.35C334.916 134.35 334.846 134.35 334.706 134.35C334.566 134.35 334.496 134.35 334.496 134.35V134H341.881V134.35H341.461C340.808 134.35 340.201 134.525 339.641 134.875C339.081 135.225 338.638 135.633 338.311 136.1L336.001 136.205ZM326.026 136.205L322.141 136.1C321.791 135.563 321.336 135.143 320.776 134.84C320.239 134.513 319.633 134.35 318.956 134.35H318.536V134H327.496V134.35C327.496 134.35 327.426 134.35 327.286 134.35C327.169 134.35 327.111 134.35 327.111 134.35C326.598 134.35 326.224 134.56 325.991 134.98C325.781 135.377 325.793 135.785 326.026 136.205ZM328.616 152.76V155H326.096V154.65C326.119 154.65 326.189 154.65 326.306 154.65C326.446 154.65 326.516 154.65 326.516 154.65C327.076 154.65 327.543 154.463 327.916 154.09C328.289 153.717 328.488 153.273 328.511 152.76H328.616ZM331.626 152.76H331.731C331.754 153.273 331.953 153.717 332.326 154.09C332.723 154.463 333.189 154.65 333.726 154.65C333.726 154.65 333.796 154.65 333.936 154.65C334.076 154.65 334.146 154.65 334.146 154.65V155H331.626V152.76Z" fill="#FFE393"/>
<rect x="2" y="50" width="69" height="2" fill="#D9D9D9"/>
<rect x="446" y="50" width="69" height="2" fill="#D9D9D9"/>
<rect x="350" y="145" width="167" height="2" fill="#D9D9D9"/>
<rect x="2" y="145" width="169" height="2" fill="#D9D9D9"/>
<rect width="95.2948" height="2.00291" transform="matrix(0 -1 1 0.000373932 515 145.295)" fill="#D9D9D9"/>
<rect width="96.7441" height="2" transform="matrix(0 -1 1 0.000333257 0 146.744)" fill="#D9D9D9"/>
<defs>
<radialGradient id="paint0_diamond_2_47" cx="0" cy="0" r="1" gradientUnits="userSpaceOnUse" gradientTransform="translate(209.542 36.6842) rotate(1.04563) scale(236.498 51.722)">
<stop offset="0.065" stop-color="#FFE28E"/>
<stop offset="0.205" stop-color="#FFE28E"/>
<stop offset="0.435" stop-color="#C2980F"/>
<stop offset="0.56" stop-color="#ECCB66"/>
<stop offset="0.77" stop-color="#D7B23B"/>
<stop offset="0.985" stop-color="#C2980F"/>
</radialGradient>
</defs>
</svg>
